<svg xmlns="http://www.w3.org/2000/svg" x="0px" y="0px"
width="32" height="32"
viewBox="0 0 172 172"
style=" fill:#000000;"><g fill="none" fill-rule="nonzero" stroke="none" stroke-width="1" stroke-linecap="butt" stroke-linejoin="miter" stroke-miterlimit="10" stroke-dasharray="" stroke-dashoffset="0" font-family="none" font-weight="none" font-size="none" text-anchor="none" style="mix-blend-mode: normal"><path d="M0,172v-172h172v172z" fill="none"></path><g fill="#ffffff"><path d="M86.0105,14.02539l-3.7373,3.61133l-14.06739,13.59497l-24.51294,-3.46436l-4.2727,24.38696l-21.86743,11.60034l10.86548,22.24536l-10.86548,22.24536l21.86743,11.60034l4.2727,24.38696l24.51294,-3.46435l17.80469,17.2063l17.78369,-17.2063l24.51294,3.46435l4.2832,-24.38696l21.86743,-11.60034l-10.86548,-22.24536l10.86548,-22.24536l-21.86743,-11.60034l-4.2832,-24.38696l-24.51294,3.46436zM86,28.97461l14.09888,13.63696l19.42139,-2.73999l3.39087,19.31641l17.32178,9.19629l-8.6084,17.61572l8.6084,17.61572l-17.32178,9.19629l-3.39087,19.31641l-19.42139,-2.73999l-14.09888,13.63696l-14.08838,-13.63696l-19.42139,2.73999l-3.39087,-19.31641l-17.32178,-9.19629l8.6084,-17.61572l-8.6084,-17.61572l17.32178,-9.19629l3.39087,-19.31641l19.42139,2.73999zM112.60205,64.5l-33.59375,33.59375l-17.46875,-17.46875l-7.5166,7.5271l24.98535,24.99585l41.12085,-41.12085z"></path></g></g></svg>
